:SAMPLES-PER-SECOND 30
:FULLY-SPECIFIED
:DEGREES
168
root  -0.123487 28.7774 11.4286 -53.2368 -71.4942 58.5025
RightUpLeg  -21.3255 -10.61 -63.5757
RightLeg  40.1772 -0.400216 -0.648928
RightFoot  1.56096 -4.85313 41.3414
RightToes  -6.40286e-010 0 -3.6325e-017
Spine  33.4867 7.78881 29.7064
Spine1  -21.9248 15.0728 -7.98228
HEad  -4.64132 -15.029 -29.0266
LeftShoulder1  -0.178619 4.98765 -4.0431
LeftArm  18.1476 36.8076 -31.3514
LeftForeArm  35.0806 -29.8255 -4.55982
LeftHand  3.18908 11.459 55.0829
RightShoulder  -0.0329252 -7.21078 -8.55845
RightArm  -48.5021 -2.63402 -13.0259
RightForeArm  -62.9731 13.1015 -3.49781
RightHand  -0.30081 -3.67717 -19.8704
LeftUpLeg  -45.2103 45.1737 8.1969
LeftLeg  72.667 -7.10829 -23.4004
LeftFoot  -9.73708 0.310228 -18.0614
LeftToes  -2.09187e-010 -4.93792e-011 -8.21189e-011
169
root  -0.259438 29.2733 12.6689 -52.8788 -71.618 54.7977
RightUpLeg  -15.7911 -7.89563 -63.4481
RightLeg  34.2977 -4.04003 -3.19231
RightFoot  8.26565 -6.81728 38.4305
RightToes  -6.40286e-010 0 -3.6325e-017
Spine  35.3219 9.15686 29.5257
Spine1  -22.7468 16.6133 -6.24002
HEad  -2.99737 -19.5617 -28.7381
LeftShoulder1  -0.291529 6.25983 -2.32972
LeftArm  9.64613 41.2802 -36.1503
LeftForeArm  31.41 -33.2534 -5.56761
LeftHand  3.1662 11.4168 55.0722
RightShoulder  -0.0545123 -6.99463 -7.79939
RightArm  -50.3623 -4.62623 -13.9218
RightForeArm  -58.6728 14.9195 -2.35166
RightHand  -0.378371 -3.33293 -20.8143
LeftUpLeg  -40.6185 45.3325 9.93475
LeftLeg  73.9993 -6.61715 -23.8395
LeftFoot  -10.5469 0.168194 -15.2473
LeftToes  -2.09187e-010 -4.93792e-011 -8.21189e-011
170
root  -0.393275 29.7201 13.776 -50.2922 -71.7278 50.1288
RightUpLeg  -10.2574 -6.87964 -62.675
RightLeg  27.778 -8.49707 -5.0242
RightFoot  14.3489 -8.04709 34.7557
RightToes  -6.40286e-010 0 -3.6325e-017
Spine  35.6771 10.1585 29.2892
Spine1  -22.8817 17.5015 -5.3769
HEad  -1.99884 -23.6323 -27.707
LeftShoulder1  -0.318667 6.7441 -1.51353
LeftArm  2.58472 44.566 -40.627
LeftForeArm  24.5566 -35.3559 -6.5002
LeftHand  3.13405 11.4184 54.5901
RightShoulder  -0.095504 -6.82559 -6.31091
RightArm  -54.6412 -8.27302 -14.0834
RightForeArm  -46.9457 18.1125 0.836785
RightHand  -0.644108 -2.16426 -22.8808
LeftUpLeg  -37.7165 44.117 10.9077
LeftLeg  74.7889 -6.1625 -23.5476
LeftFoot  -11.6938 0.0288507 -13.5184
LeftToes  -2.09187e-010 -4.93792e-011 -8.21189e-011
171
root  -0.509775 30.0499 14.7018 -45.6038 -71.8102 44.5085
RightUpLeg  -5.07048 -6.36814 -61.473
RightLeg  21.1664 -13.2741 -5.80086
RightFoot  19.2604 -8.57351 31.1403
RightToes  -6.40286e-010 0 -3.6325e-017
Spine  34.5194 10.5626 28.8997
Spine1  -21.8776 17.527 -5.36964
HEad  -2.14381 -26.5423 -25.8551
LeftShoulder1  -0.314909 6.65899 -1.69656
LeftArm  -2.78593 45.4764 -44.7036
LeftForeArm  16.0914 -35.3165 -7.00128
LeftHand  2.99171 11.2544 53.718
RightShoulder  -0.149099 -6.3905 -3.68031
RightArm  -57.6233 -12.8064 -13.6149
RightForeArm  -33.0476 22.1551 5.11697
RightHand  -0.935039 -1.11042 -25.1325
LeftUpLeg  -36.6104 41.7561 10.9812
LeftLeg  75.1887 -5.64734 -22.3213
LeftFoot  -13.7506 -0.179909 -12.4245
LeftToes  -2.09187e-010 -4.93792e-011 -8.21189e-011
172
root  -0.551669 30.2308 15.3679 -39.5466 -72.4002 37.4888
RightUpLeg  -0.977326 -4.94443 -59.4295
RightLeg  16.0988 -15.9689 -5.37911
RightFoot  21.9982 -8.58286 28.648
RightToes  -6.40286e-010 0 -3.6325e-017
Spine  33.6172 9.99693 28.5658
Spine1  -20.2247 16.8286 -5.82857
HEad  -3.99749 -27.8871 -23.4845
LeftShoulder1  -0.322965 6.43412 -2.86029
LeftArm  -6.50265 43.4556 -48.2627
LeftForeArm  4.88135 -33.353 -7.13128
LeftHand  2.6998 10.8327 52.4328
RightShoulder  -0.170552 -5.54048 -0.037764
RightArm  -52.8863 -17.0415 -12.4805
RightForeArm  -25.956 27.4324 7.26608
RightHand  -1.17498 -0.471675 -27.4123
LeftUpLeg  -35.8773 38.271 12.1068
LeftLeg  75.5888 -4.95127 -20.2622
LeftFoot  -16.2408 -0.43626 -12.38
LeftToes  -2.09187e-010 -4.93792e-011 -8.21189e-011
173
root  -0.486474 30.2353 15.7292 -32.9692 -73.076 30.6328
RightUpLeg  0.62085 -5.36608 -57.6326
RightLeg  14.1034 -14.4002 -4.40972
RightFoot  22.2483 -8.47271 28.1077
RightToes  -6.40286e-010 0 -3.6325e-017
Spine  32.6051 8.92808 27.4166
Spine1  -17.8969 15.4999 -6.59219
HEad  -7.49255 -27.6043 -20.9899
LeftShoulder1  -0.320306 5.95123 -5.25014
LeftArm  -9.46968 39.124 -50.6627
LeftForeArm  -9.17639 -30.9481 -7.25743
LeftHand  2.32903 10.2878 50.5541
RightShoulder  -0.11574 -4.4786 3.69434
RightArm  -45.147 -20.5427 -10.6745
RightForeArm  -20.3334 33.7729 8.58921
RightHand  -1.47181 0.153203 -30.3139
LeftUpLeg  -36.542 33.7849 13.1233
LeftLeg  76.0996 -4.0673 -17.3637
LeftFoot  -18.5473 -0.758552 -13.7305
LeftToes  -2.09187e-010 -4.93792e-011 -8.21189e-011
174
root  -0.340842 30.1208 15.7783 -26.2433 -74.2542 24.182
RightUpLeg  -0.365126 -7.86984 -55.9614
RightLeg  15.0178 -10.7452 -3.46551
RightFoot  21.1424 -8.57054 29.3743
RightToes  -6.40286e-010 0 -3.6325e-017
Spine  31.6655 7.69127 25.437
Spine1  -15.0568 13.902 -7.47873
HEad  -11.9846 -25.9667 -18.2294
LeftShoulder1  -0.205267 4.77989 -8.83746
LeftArm  -12.6824 33.383 -51.5133
LeftForeArm  -22.1494 -29.1107 -7.39857
LeftHand  2.03979 9.86502 48.7192
RightShoulder  -0.0031982 -3.5059 6.63612
RightArm  -37.0748 -23.347 -8.12947
RightForeArm  -12.2592 40.6807 10.365
RightHand  -1.8739 0.895307 -33.8698
LeftUpLeg  -37.6949 29.5054 14.6844
LeftLeg  76.3943 -3.25875 -14.1763
LeftFoot  -20.8759 -1.19868 -15.7715
LeftToes  -2.09187e-010 -4.93792e-011 -8.21189e-011
175
root  -0.173606 29.9485 15.5339 -19.3324 -76.1138 17.4623
RightUpLeg  -2.94526 -11.496 -53.9342
RightLeg  17.6335 -6.76918 -2.59909
RightFoot  19.7534 -8.95418 31.9544
RightToes  -6.40286e-010 0 -3.6325e-017
Spine  31.1328 6.54384 22.4594
Spine1  -12.2035 12.2588 -8.22312
HEad  -16.6547 -23.3744 -14.4098
LeftShoulder1  0.0900852 3.0486 -12.6157
LeftArm  -15.7556 26.6222 -51.0479
LeftForeArm  -30.3291 -27.5621 -7.33609
LeftHand  1.85404 9.55208 47.7317
RightShoulder  0.129197 -2.69088 8.80492
RightArm  -29.0289 -25.7256 -5.04924
RightForeArm  -2.84725 47.7385 12.572
RightHand  -2.20387 1.31534 -37.1532
LeftUpLeg  -38.0663 26.2952 17.3808
LeftLeg  76.2074 -2.64646 -11.1595
LeftFoot  -23.2532 -1.74327 -17.9067
LeftToes  -2.09187e-010 -4.93792e-011 -8.21189e-011
176
root  -0.0298621 29.7502 15.0242 -13.0151 -78.4605 10.9585
RightUpLeg  -6.47517 -14.9856 -51.7569
RightLeg  21.5002 -2.54487 -1.29836
RightFoot  17.7155 -9.25164 35.1922
RightToes  -6.40286e-010 0 -3.6325e-017
Spine  31.1337 5.71384 17.9247
Spine1  -10.1608 10.5463 -8.68649
HEad  -20.7655 -19.9041 -8.9166
LeftShoulder1  0.445032 1.47951 -15.2346
LeftArm  -18.2141 19.365 -49.6778
LeftForeArm  -34.6636 -26.1605 -7.14183
LeftHand  1.68692 9.21553 47.2756
RightShoulder  0.269704 -1.97753 10.6235
RightArm  -21.2552 -27.7643 -1.62717
RightForeArm  6.37318 54.1627 15.1756
RightHand  -2.26458 1.09689 -39.2744
LeftUpLeg  -37.4268 24.2766 20.8585
LeftLeg  75.7717 -2.17392 -8.63131
LeftFoot  -24.6502 -2.24702 -20.3479
LeftToes  -2.09187e-010 -4.93792e-011 -8.21189e-011
177
root  0.0579768 29.5787 14.2784 -6.97573 -81.3447 4.5803
RightUpLeg  -11.0569 -17.9859 -49.3076
RightLeg  26.6767 2.02529 0.901834
RightFoot  14.8701 -8.97483 37.7202
RightToes  -6.40286e-010 0 -3.6325e-017
Spine  31.2974 5.24176 11.8294
Spine1  -9.32859 8.67285 -8.73093
HEad  -23.755 -15.1517 -2.26671
LeftShoulder1  0.66522 0.620225 -16.3447
LeftArm  -21.1604 12.6686 -47.4527
LeftForeArm  -37.9962 -25.7017 -7.13755
LeftHand  1.53221 8.92802 46.5104
RightShoulder  0.392233 -1.4408 12.0852
RightArm  -13.6941 -29.0489 2.1772
RightForeArm  15.4543 59.1701 17.7353
RightHand  -2.13595 0.584628 -40.1282
LeftUpLeg  -36.0413 23.625 24.81
LeftLeg  75.1889 -1.86127 -6.88378
LeftFoot  -24.2322 -2.48935 -23.0568
LeftToes  -2.09187e-010 -4.93792e-011 -8.21189e-011
